<?xml version="1.0" encoding="UTF-8" standalone="no"?>
<!-- Created with Inkscape (http://www.inkscape.org/) -->

<svg
   version="1.1"
   id="svg1"
   width="546.1333"
   height="546.1333"
   viewBox="0 0 546.1333 546.1333"
   xmlns="http://www.w3.org/2000/svg"
   xmlns:svg="http://www.w3.org/2000/svg">
  <defs
     id="defs1" />
  <g
     id="g1">
    <path
       style="fill:#ffffff;fill-opacity:1"
       d="m 522.11133,544.36244 c -2.34666,-1.13923 -22.26666,-16.51447 -44.26666,-34.1672 l -40,-32.09588 -119.24496,-10e-4 c -104.60523,-0.001 -120.24835,-0.20875 -127.41783,-1.68964 -26.79594,-5.53486 -47.55038,-26.26615 -52.99265,-52.93355 -2.31729,-11.35485 -2.2762,-32.86167 0.0722,-37.81063 5.53626,-11.6668 21.03391,-13.11187 28.97677,-2.70192 2.73723,3.58743 2.90019,4.50105 3.44544,19.31656 0.50679,13.77055 0.88779,16.23328 3.3278,21.50994 3.4924,7.55252 9.21051,13.28389 16.80763,16.84661 5.95892,2.79447 5.95892,2.79447 131.82558,3.32781 75.22413,0.31874 126.71134,0.93706 127.96603,1.53675 1.15465,0.55188 15.19363,11.47188 31.19772,24.26666 16.0041,12.79479 29.34599,23.26325 29.64865,23.26325 0.30266,0 0.42368,-66.6 0.26894,-147.99999 -0.28135,-147.99999 -0.28135,-147.99999 -3.07582,-153.95891 -5.44629,-11.61364 -15.29392,-18.29002 -29.6335,-20.09056 -5.52488,-0.69373 -8.64166,-1.71316 -11.19721,-3.66237 -13.25748,-10.11198 -5.8769,-30.55481 11.03135,-30.55481 24.78282,0 50.22702,16.72539 60.92597,40.04882 6.5965,14.38019 6.3368,6.60417 6.31109,188.97286 -0.0225,159.75276 -0.1002,166.34735 -2.00903,170.55048 -3.90199,8.59194 -13.54551,12.1158 -21.96754,8.02721 z M 11.711365,426.12675 C 7.7702348,424.64584 3.8383248,420.89336 2.0104948,416.86857 0.10031478,412.66248 0.02399478,405.85926 0.00145478,237.78476 -0.01934522,82.524338 0.16597478,62.163218 1.6661848,54.900268 7.2010348,28.104328 27.932325,7.3498875 54.599725,1.9076175 c 12.46325,-2.54349 322.026665,-2.54349 334.489915,0 26.6674,5.44227 47.39869,26.1967105 52.93354,52.9926505 2.53725,12.28358 2.54643,219.613822 0.0103,232.041092 -5.44227,26.6674 -26.19671,47.39869 -52.99265,52.93354 -7.18842,1.48481 -23.54456,1.68815 -135.78935,1.68815 h -127.6165 l -48.695145,40.65109 c -26.78233,22.35811 -50.61514,41.54756 -52.96181,42.64324 -4.18475,1.9539 -9.09318,2.46183 -12.26666,1.26937 z m 60.01413,-84.11406 c 20.08555,-16.76603 37.959195,-31.28603 39.719195,-32.26666 2.92848,-1.63169 14.60372,-1.82823 137.59999,-2.31631 134.39999,-0.53333 134.39999,-0.53333 140.35891,-3.3278 7.57439,-3.55206 13.29455,-9.27222 16.84661,-16.84662 2.79447,-5.95891 2.79447,-5.95891 2.79447,-116.3589 0,-110.399992 0,-110.399992 -2.79447,-116.358912 -3.55206,-7.57439 -9.27222,-13.29455 -16.84661,-16.84661 -5.95892,-2.79447 -5.95892,-2.79447 -167.55891,-2.79447 -161.599985,0 -161.599985,0 -167.558905,2.79447 -7.57439,3.55206 -13.29455,9.27222 -16.84661,16.84661 -2.79447,5.95892 -2.79447,5.95892 -3.0751,161.958902 -0.15435,85.8 -0.028,155.99999 0.2808,155.99999 0.30879,0 16.99507,-13.71766 37.08063,-30.48369 z M 112.16963,203.23585 c -12.612575,-6.21522 -12.506925,-24.57088 0.17605,-30.58934 5.61725,-2.66556 145.1141,-2.66556 150.73134,0 12.76834,6.05897 12.76834,24.57413 0,30.63311 -5.60642,2.66042 -145.50213,2.61985 -150.90739,-0.0438 z m 0,-68.26666 c -12.612575,-6.21523 -12.506925,-24.57088 0.17605,-30.58935 5.6439,-2.6782 213.35411,-2.6782 218.998,0 12.76834,6.05898 12.76834,24.57414 0,30.63312 -5.63359,2.67331 -213.74462,2.63176 -219.17405,-0.0438 z"
       id="path1" />
  </g>
</svg>
