<?xml version="1.0" encoding="UTF-8" standalone="no"?>
<!-- Created with Inkscape (http://www.inkscape.org/) -->

<svg
   version="1.1"
   id="svg1"
   width="512"
   height="512"
   viewBox="0 0 512 512"
   xmlns="http://www.w3.org/2000/svg"
   xmlns:svg="http://www.w3.org/2000/svg">
  <defs
     id="defs1" />
  <g
     id="g1">
    <path
       style="fill:#ffffff;fill-opacity:1"
       d="M 231,483.90006 C 130.39076,472.62559 48.841837,396.78685 30.565174,297.5 c -4.788816,-26.01495 -4.788816,-56.98505 0,-83 C 46.693712,126.88271 112.6672,56.066865 198.5,34.239014 219.69164,28.849838 234.24585,27.019908 256,27.009418 337.12916,26.970296 410.83137,68.861304 453.03403,139 c 21.07181,35.02029 31.94956,74.85486 31.94956,117 0,42.16704 -10.91097,82.10165 -31.96684,117 -38.08422,63.12141 -100.53455,103.12143 -173.22734,110.95373 -11.18945,1.20561 -37.81342,1.17633 -48.78941,-0.0537 z m 51.42359,-32.41099 C 371.0556,439.87043 440.82624,368.89168 451.951,279.02623 c 1.34741,-10.88429 1.34822,-35.15805 0.002,-46.05246 -1.6171,-13.08212 -4.65008,-26.92722 -8.48329,-38.725 C 439.2265,181.19053 428.18598,158.54401 420.44074,147.0123 374.89227,79.196189 295.23695,46.637706 215,63.040018 192.82339,67.573437 165.96386,78.841751 147.0123,91.562739 79.113323,137.13903 46.733861,216.47706 63.066643,297.25123 c 5.747437,28.42409 20.879818,59.93112 40.054267,83.39674 18.18552,22.25537 39.74435,39.27046 66.37909,52.389 20.17722,9.93799 40.38919,16.04244 62.5,18.87633 11.05697,1.41715 38.11327,1.18951 50.42359,-0.42423 z m -30.51002,-73.41358 c -4.64283,-1.46304 -7.77814,-4.16427 -9.88498,-8.51643 -2.03926,-4.21255 -2.06566,-5.27416 -1.79911,-72.34437 0.26742,-67.28806 0.29452,-68.10148 2.36247,-70.89189 C 246.13898,221.53656 250.78342,219 256,219 c 5.21658,0 9.86102,2.53656 13.40805,7.3228 2.06795,2.79041 2.09505,3.60383 2.36247,70.89189 0.26745,67.29645 0.24678,68.11813 -1.82095,72.38949 -3.22776,6.66765 -11.47183,10.5398 -18.036,8.47131 z m -3.2888,-187.5446 c -12.46472,-4.44303 -17.64228,-20.92388 -9.99519,-31.81594 11.27455,-16.0588 36.55588,-9.5824 38.16122,9.77587 1.32506,15.97857 -13.2265,27.36525 -28.16603,22.04007 z"
       id="path1" />
  </g>
</svg>
