<?xml version="1.0" encoding="UTF-8" standalone="no"?>
<!-- Created with Inkscape (http://www.inkscape.org/) -->

<svg
   version="1.1"
   id="svg1"
   width="334.36734"
   height="334.36734"
   viewBox="0 0 334.36734 334.36734"
   xmlns="http://www.w3.org/2000/svg"
   xmlns:svg="http://www.w3.org/2000/svg">
  <defs
     id="defs1" />
  <g
     id="g1">
    <path
       style="fill:#ffffff;fill-opacity:1"
       d="M 153.46938,333.0586 C 131.60016,330.79027 112.2095,325.14322 93.061223,315.4662 43.163985,290.24948 9.7936259,243.44679 1.5374674,187.10204 0.13176011,177.50869 -0.03010751,155.12497 1.2328594,144.97959 4.2096596,121.06703 11.950614,98.582976 24.503812,77.387754 41.96475,47.906147 72.402138,21.576847 104.23259,8.4198478 c 8.76067,-3.621188 21.65595,-7.73899956 24.28322,-7.75428601 4.63832,-0.0269875 9.31317,3.74951981 10.61191,8.57268071 0.99907,3.7102475 0.0224,6.3191745 -4.80315,12.8303755 -8.32205,11.229101 -13.58891,21.247387 -17.75275,33.768116 -20.154035,60.603566 6.87608,125.646406 63.82336,153.578766 25.63891,12.57576 56.09857,15.99402 84.09461,9.43732 16.33823,-3.82644 33.36889,-12.09338 48.29048,-23.44093 6.25229,-4.75473 7.54382,-5.37108 11.25495,-5.37108 5.19437,0 10.33212,4.8553 10.33212,9.76412 0,5.20473 -8.38341,29.31497 -14.20337,40.84813 -14.50098,28.73597 -35.68687,51.52814 -63.83744,68.67753 -19.01297,11.58274 -41.29642,19.46753 -64.32653,22.76136 -8.32973,1.19134 -30.90417,1.75768 -38.53062,0.96665 z m 35.40612,-23.2227 c 47.11592,-6.52921 86.39031,-33.20414 110.82874,-75.27419 1.52886,-2.63187 2.64866,-4.9163 2.48845,-5.0765 -0.1602,-0.1602 -2.75787,0.76649 -5.7726,2.05933 -21.86127,9.375 -41.42493,13.16429 -64.58336,12.50918 -13.65318,-0.38622 -20.63393,-1.3253 -32.91348,-4.42765 -40.94072,-10.34343 -76.41777,-39.20575 -95.0654,-77.34036 C 93.440306,140.98173 88.765149,120.59606 88.786311,96.567417 88.804687,75.701536 92.479376,57.326654 100.27731,39.107954 l 2.25561,-5.269901 -4.40932,2.409921 C 65.834131,53.895851 39.979528,86.114477 29.211587,122.12245 c -7.034008,23.52171 -7.896455,49.93508 -2.431561,74.46925 8.224834,36.92468 31.315357,69.7262 64.3362,91.39358 7.511856,4.92907 23.546734,12.58839 32.638874,15.59047 8.77187,2.89634 17.85482,5.00303 27.10204,6.28602 8.89564,1.23422 29.02421,1.22052 38.01836,-0.0259 z"
       id="path1" />
  </g>
</svg>
