<?xml version="1.0" encoding="UTF-8" standalone="no"?>
<!-- Created with Inkscape (http://www.inkscape.org/) -->

<svg
   version="1.1"
   id="svg1"
   width="512"
   height="512"
   viewBox="0 0 512 512"
   xmlns="http://www.w3.org/2000/svg"
   xmlns:svg="http://www.w3.org/2000/svg">
  <defs
     id="defs1" />
  <g
     id="g1">
    <path
       style="fill:#ffffff;fill-opacity:1"
       d="m 242.88618,478.16672 c -20.26661,-5.29048 -34.91881,-24.16891 -34.91881,-44.99067 0,-6.79466 -2.8538,-12.16357 -8.00404,-15.05817 -6.84288,-3.84591 -12.29251,-2.65583 -20.35272,4.4446 -2.82878,2.49194 -8.49491,6.19732 -12.59138,8.23416 -7.34944,3.65428 -7.60785,3.70336 -19.5,3.70336 -11.87355,0 -12.16861,-0.0557 -19.94224,-3.76737 -6.96735,-3.32667 -9.75361,-5.60779 -23.81817,-19.5 -8.76028,-8.65295 -17.43762,-18.00692 -19.28296,-20.7866 -5.09118,-7.66897 -7.61102,-16.23387 -7.59429,-25.81291 0.0231,-13.2147 3.6557,-22.57832 12.71768,-32.78162 6.93817,-7.812 7.89729,-12.0612 4.36803,-19.35169 C 91.41583,307.22922 85.93033,304 79.52862,304 c -11.6457,0 -25.307254,-5.51195 -33.594966,-13.55437 -5.14769,-4.99534 -10.167241,-13.83402 -12.133015,-21.36444 -2.386648,-9.1427 -2.568504,-46.95382 -0.274342,-57.04048 1.70216,-7.48383 6.621517,-16.5366 11.995439,-22.07442 7.772621,-8.00969 21.598484,-13.78279 33.309474,-13.90865 7.1533,-0.0769 12.49177,-3.09508 15.13607,-8.55746 3.56057,-7.35516 2.47559,-11.96762 -4.67659,-19.88107 C 86.74603,144.8036 83.04479,139.125 81.0657,135 c -3.51454,-7.32535 -3.59833,-7.77945 -3.59833,-19.5 0,-11.83194 0.0533,-12.11204 3.808,-19.999998 3.45811,-7.26492 5.39459,-9.58192 21.0749,-25.21614 15.54436,-15.49866 18.0575,-17.593613 25.192,-20.999999 7.82152,-3.734412 8.08192,-3.783568 19.9251,-3.761267 10.04417,0.01891 12.89641,0.384471 17.5,2.242878 5.02682,2.029266 7.48875,3.711432 18.63755,12.734528 3.06724,2.48241 4.61332,3 8.96127,3 3.74741,0 6.04658,-0.59137 8.01606,-2.06179 5.15127,-3.84598 6.56963,-6.77418 7.43388,-15.347245 1.11638,-11.074039 3.17727,-17.59687 7.78429,-24.637747 4.73511,-7.236631 7.88869,-10.251323 15.51025,-14.827153 C 240.38544,1.177759 247.57841,0 271.77828,0 c 23.58414,0 29.06697,0.727985 37.85409,5.026097 15.727,7.692678 26.08767,24.188521 26.27735,41.837748 0.0726,6.759327 2.96978,12.156457 8.06169,15.018267 6.88975,3.87226 12.41647,2.6358 20.37685,-4.55879 2.81551,-2.54465 8.49411,-6.245898 12.61911,-8.224984 7.32534,-3.514543 7.77944,-3.598338 19.5,-3.598338 11.83908,0 12.10727,0.05117 20,3.815796 7.24096,3.453754 9.63043,5.446226 25.1842,20.999996 15.26501,15.26501 17.58403,18.02698 20.76416,24.73023 5.68943,11.992498 6.28142,25.669768 1.64275,37.953978 -1.88954,5.00392 -3.6567,7.62353 -12.43125,18.42796 C 443.47047,161.47168 450.91424,176 464.21703,176 c 21.62038,0 40.56194,14.4046 45.91706,34.91881 2.48788,9.53049 2.48788,48.63189 0,58.16238 -1.96577,7.53042 -6.98532,16.3691 -12.13301,21.36444 C 489.71336,298.48805 476.05181,304 464.40611,304 c -6.40171,0 -11.88721,3.22922 -14.43866,8.49981 -3.56057,7.35516 -2.47559,11.96763 4.67659,19.88108 2.54466,2.81551 6.2459,8.49411 8.22499,12.61911 3.51454,7.32534 3.59834,7.77944 3.59834,19.5 0,11.83908 -0.0512,12.10727 -3.8158,20 -3.45376,7.24096 -5.44623,9.63043 -21,25.1842 -15.58799,15.58799 -17.92731,17.53699 -25.1842,20.98209 -7.29268,3.46208 -8.88417,3.83038 -18,4.16554 -14.70216,0.54056 -22.95633,-2.52919 -35.42578,-13.17493 -7.85809,-6.7088 -14.72775,-7.34365 -21.1341,-1.95307 -4.13879,3.48257 -5.94012,7.36387 -5.94012,12.7991 0,11.58146 -5.53008,25.26174 -13.55438,33.53078 -4.99533,5.14769 -13.83402,10.16724 -21.36444,12.13301 -9.53048,2.48788 -48.63189,2.48788 -58.16237,0 z m 52.69975,-31.79001 c 5.62156,-2.6676 7.56729,-6.42627 8.48715,-16.39505 1.79849,-19.49067 10.38598,-32.66634 26.47351,-40.61795 17.48407,-8.64188 37.6542,-5.9865 51.92078,6.83533 2.75,2.47151 6.05298,5.0503 7.33996,5.73064 3.60421,1.9053 10.69872,1.51985 14.40717,-0.78275 3.96995,-2.46497 28.00353,-26.73048 29.70029,-29.9869 1.57581,-3.02429 1.56609,-10.32398 -0.0177,-13.32006 -0.68034,-1.28699 -3.25913,-4.58997 -5.73065,-7.33997 -22.43906,-24.96747 -11.54827,-65.13539 20.62155,-76.05732 2.49719,-0.84782 8.45927,-1.90311 13.24906,-2.34508 9.87469,-0.91118 13.64654,-2.8724 16.30707,-8.47904 2.38459,-5.02516 2.38459,-42.21197 0,-47.23713 -2.66053,-5.60664 -6.43238,-7.56785 -16.30707,-8.47903 -19.47924,-1.79744 -32.742,-10.36707 -40.57585,-26.21777 -8.7791,-17.7633 -6.20154,-37.82353 6.70524,-52.18463 2.47152,-2.75 5.05031,-6.05299 5.73065,-7.33997 1.58335,-2.99519 1.5937,-10.29485 0.0189,-13.32006 -1.77422,-3.40826 -26.94271,-28.739068 -30.31005,-30.505538 -3.46857,-1.81956 -10.598,-1.95603 -13.79855,-0.26412 -1.28698,0.68035 -4.58996,3.25914 -7.33996,5.73065 -14.26658,12.82182 -34.43671,15.4772 -51.92078,6.83533 -16.08753,-7.95161 -24.67502,-21.12729 -26.47351,-40.617958 -0.91986,-9.96878 -2.86559,-13.727443 -8.48715,-16.395048 -5.02516,-2.384594 -42.21197,-2.384594 -47.23713,0 -5.55389,2.635492 -7.57805,6.463876 -8.44465,15.971686 -1.77443,19.46813 -10.57923,33.16525 -26.32023,40.94487 -17.55678,8.67703 -37.91265,6.04701 -52.11655,-6.73357 -2.75,-2.47444 -6.05299,-5.05561 -7.33997,-5.73596 -3.20055,-1.69191 -10.32998,-1.55544 -13.79855,0.26412 -3.36734,1.76647 -28.53583,27.097278 -30.31005,30.505538 -1.57482,3.02521 -1.56447,10.32487 0.0189,13.32006 0.68034,1.28698 3.26152,4.58997 5.73595,7.33997 12.74364,14.16284 15.4086,34.56481 6.79207,51.99757 -7.91203,16.00742 -21.12363,24.60139 -40.58,26.39671 -9.96878,0.91986 -13.72744,2.86559 -16.39505,8.48715 -2.38459,5.02516 -2.38459,42.21197 0,47.23713 2.66761,5.62156 6.42627,7.56729 16.39505,8.48716 19.51486,1.80072 32.62956,10.30944 40.53048,26.29588 8.7341,17.67224 6.13126,37.76809 -6.74785,52.0984 -2.47152,2.75 -5.05031,6.05298 -5.73065,7.33997 -1.69191,3.20054 -1.55545,10.32997 0.26412,13.79854 1.76647,3.36734 27.09728,28.53583 30.50553,30.31005 3.02522,1.57482 10.32488,1.56447 13.32007,-0.0189 1.28698,-0.68034 4.58997,-3.26152 7.33997,-5.73595 24.62631,-22.1586 64.5886,-12.0274 75.53179,19.14875 1.12793,3.21337 2.41605,9.801 2.86249,14.63918 0.91187,9.88223 2.82752,13.6462 8.3239,16.35525 4.84186,2.38646 42.38873,2.41798 47.40038,0.0398 z m -38.66338,-95.4086 c -15.75439,-2.20021 -34.19917,-9.34973 -48.28367,-18.7156 -9.15828,-6.09005 -22.83397,-19.76574 -28.92403,-28.92403 -38.16165,-57.3879 -18.3729,-133.11017 42.75252,-163.59381 7.67687,-3.8285 19.66403,-7.92299 29,-9.9056 7.77993,-1.65216 33.27256,-1.64454 41,0.0123 65.93381,14.13656 105.04569,77.55246 86.92468,140.93946 -11.4139,39.92563 -43.59088,69.79879 -84.92468,78.84423 -8.53567,1.86793 -28.63762,2.58704 -37.54482,1.34309 z M 295.997,316.11536 c 25.18161,-8.10727 44.00344,-26.90279 52.02869,-51.95598 13.16562,-41.10035 -8.94658,-85.44558 -49.64761,-99.56652 -50.12694,-17.39121 -102.70518,17.52797 -106.07927,70.45121 -2.23406,35.04165 18.97439,67.72857 51.87226,79.94666 16.0796,5.97187 35.4636,6.39251 51.82593,1.12463 z"
       id="path1" />
  </g>
</svg>
