<?xml version="1.0" encoding="UTF-8" standalone="no"?>
<!-- Created with Inkscape (http://www.inkscape.org/) -->

<svg
   version="1.1"
   id="svg1"
   width="323.36841"
   height="323.36841"
   viewBox="0 0 323.36841 323.36841"
   xmlns="http://www.w3.org/2000/svg"
   xmlns:svg="http://www.w3.org/2000/svg">
  <defs
     id="defs1" />
  <g
     id="g1">
    <path
       style="fill:#ffffff;fill-opacity:1"
       d="m 157.57894,322.50469 c -2.43265,-1.13523 -4.43507,-3.06659 -5.83536,-5.62828 -0.9669,-1.76886 -1.13862,-4.24274 -1.31598,-18.95821 -0.26631,-22.09541 0.43913,-25.293 6.232,-28.2483 4.65537,-2.37499 10.9124,-0.97675 13.80453,3.08487 2.29224,3.21916 2.69219,7.2827 2.47668,25.16343 -0.19671,16.321 -0.2558,17.01428 -1.65868,19.46106 -2.8058,4.89361 -9.13061,7.25929 -13.70319,5.12543 z M 50.046468,277.82518 c -6.20532,-3.07158 -7.831294,-10.28242 -3.671959,-16.28435 0.927747,-1.33874 7.161265,-7.84448 13.852264,-14.4572 10.264295,-10.14422 12.59007,-12.13747 14.882574,-12.75478 3.764045,-1.01355 7.28517,-0.27504 9.983175,2.09384 3.642147,3.19785 4.913136,7.9219 3.287849,12.2204 -0.993187,2.62674 -26.261476,27.8787 -29.327742,29.30879 -3.300932,1.53954 -5.70838,1.50567 -9.006161,-0.1267 z m 213.596642,0.0608 c -1.53219,-0.75843 -7.80737,-6.55183 -15.56278,-14.36792 -10.55897,-10.64158 -13.142,-13.58887 -13.77747,-15.72033 -1.51113,-5.0686 0.7962,-10.22621 5.67816,-12.69251 6.53995,-3.30388 8.73087,-2.05214 24.73964,14.13449 10.57547,10.69296 13.18411,13.67652 13.81856,15.80459 1.51113,5.0686 -0.79619,10.22621 -5.67815,12.6925 -3.47459,1.75531 -5.89417,1.79447 -9.21796,0.14918 z M 157.26315,242.74014 c -35.2715,-2.45608 -64.653038,-26.39353 -73.908247,-60.21383 -3.62017,-13.22879 -3.62017,-28.45542 0,-41.68421 7.197991,-26.30283 27.254657,-47.596608 52.935337,-56.200426 14.33753,-4.803516 31.62692,-5.284687 46.23607,-1.286771 26.30283,7.197991 47.59661,27.254657 56.20042,52.935337 4.80352,14.33753 5.28469,31.62692 1.28677,46.23607 -7.20067,26.31265 -27.25337,47.59618 -52.95726,56.20777 -8.50097,2.84809 -21.43906,4.58778 -29.79309,4.00606 z m 21.02882,-24.4535 c 20.38845,-6.11544 34.34941,-20.34456 40.35365,-41.12875 1.262,-4.36852 1.45963,-6.46362 1.45963,-15.47369 0,-9.01006 -0.19763,-11.10516 -1.45963,-15.47368 -5.99967,-20.76835 -19.79401,-34.84274 -40.35365,-41.17289 -5.14036,-1.58268 -6.38039,-1.71038 -16.60777,-1.71038 -10.22737,0 -11.46741,0.1277 -16.60776,1.71038 -20.55964,6.33015 -34.35398,20.40454 -40.35366,41.17289 -1.262,4.36852 -1.45963,6.46362 -1.45963,15.47368 0,9.01007 0.19763,11.10517 1.45963,15.47369 6.47931,22.42865 22.14089,37.14837 45.03278,42.32457 2.84851,0.64409 6.81784,0.84723 13.50759,0.69128 7.99677,-0.18643 10.33971,-0.48062 15.02882,-1.8871 z M 8.6185,172.35382 c -3.486806,-0.81925 -5.7795239,-2.67757 -7.3784015,-5.98041 -2.5635696,-5.29563 -0.5928806,-11.22428 4.749053,-14.28713 2.4467812,-1.40289 3.1400532,-1.46197 19.4610595,-1.65868 17.880729,-0.21551 21.944271,0.18444 25.163431,2.47668 4.061615,2.89213 5.459859,9.14916 3.084865,13.80453 -1.531708,3.00239 -3.996843,4.82872 -7.656371,5.67232 -3.410971,0.7863 -34.056021,0.76394 -37.423636,-0.0273 z m 268.42104,0.0218 c -5.10233,-1.24456 -8.6185,-5.60644 -8.6185,-10.69143 0,-3.19139 1.90476,-7.05034 4.33373,-8.77992 3.21916,-2.29224 7.2827,-2.69219 25.16343,-2.47668 16.321,0.19671 17.01428,0.25579 19.46106,1.65868 3.85439,2.20996 5.67336,5.28719 5.67336,9.59792 0,4.31073 -1.81897,7.38797 -5.67336,9.59793 -2.46743,1.41472 -3.02321,1.4579 -20.22138,1.57097 -9.72631,0.0639 -18.77957,-0.15091 -20.11834,-0.47747 z M 74.526313,88.969371 C 72.915757,88.48449 68.777204,84.762793 59.278271,75.257192 52.107637,68.081524 45.760269,61.255153 45.173008,60.087478 c -3.244004,-6.450189 0.925483,-14.503762 8.112701,-15.670087 4.711947,-0.764644 6.74981,0.706411 21.378422,15.432256 14.63776,14.735054 15.059052,15.352463 14.178485,20.778761 -1.018054,6.273529 -7.88823,10.276231 -14.316303,8.340963 z m 167.118517,0.09137 c -5.46853,-1.733292 -8.74962,-8.798843 -6.65707,-14.335423 0.36959,-0.977877 6.68501,-7.817906 14.03428,-15.200064 14.32087,-14.384971 16.38608,-15.866448 21.06066,-15.107868 7.196,1.167751 11.37484,9.25772 8.09431,15.670087 -1.22959,2.40345 -23.30346,24.957141 -26.79298,27.375377 -2.53722,1.758297 -6.94929,2.482176 -9.7392,1.597891 z m -85.12032,-35.39346 c -5.65809,-2.988859 -6.36173,-6.245353 -6.09691,-28.217075 0.19671,-16.3210063 0.25579,-17.0142783 1.65868,-19.4610595 2.20996,-3.8543969 5.28719,-5.67336204 9.59792,-5.67336204 4.31073,0 7.38797,1.81896514 9.59793,5.67336204 1.40288,2.4467812 1.46197,3.1400532 1.65868,19.4610595 0.21551,17.880729 -0.18444,21.944271 -2.47668,25.163431 -2.88801,4.055835 -9.35893,5.473369 -13.93962,3.053644 z"
       id="path1" />
  </g>
</svg>
